<svg width="57" height="70" viewBox="0 0 57 70" fill="none" xmlns="http://www.w3.org/2000/svg">
<circle cx="22.5" cy="28" r="3" stroke="white" stroke-width="2" stroke-linecap="round" stroke-linejoin="round"/>
<path d="M25.5 28V15" stroke="white" stroke-width="2" stroke-linecap="round" stroke-linejoin="round"/>
<path d="M37.5 13L25.5 15" stroke="white" stroke-width="2" stroke-linecap="round"/>
<path d="M37.5 17L25.5 19" stroke="white" stroke-width="2" stroke-linecap="round"/>
<circle cx="34.5" cy="26" r="3" stroke="white" stroke-width="2" stroke-linecap="round" stroke-linejoin="round"/>
<path d="M37.5 26V13" stroke="white" stroke-width="2" stroke-linecap="round" stroke-linejoin="round"/>
<path d="M10.336 56L14.368 46.2H15.488L19.492 56H17.756L14.62 48.062H15.208L12.044 56H10.336ZM12.324 54.11V52.71H17.518V54.11H12.324ZM23.196 56.14C22.6267 56.14 22.118 56.014 21.67 55.762C21.2313 55.51 20.886 55.1647 20.634 54.726C20.3913 54.278 20.27 53.7647 20.27 53.186V49.28H21.81V53.116C21.81 53.4427 21.8613 53.7227 21.964 53.956C22.076 54.18 22.2347 54.3527 22.44 54.474C22.6547 54.5953 22.9067 54.656 23.196 54.656C23.644 54.656 23.9847 54.5253 24.218 54.264C24.4607 53.9933 24.582 53.6107 24.582 53.116V49.28H26.122V53.186C26.122 53.774 25.996 54.292 25.744 54.74C25.5013 55.1787 25.1607 55.524 24.722 55.776C24.2833 56.0187 23.7747 56.14 23.196 56.14ZM30.4844 56.14C29.8777 56.14 29.3271 55.986 28.8324 55.678C28.3471 55.37 27.9597 54.9547 27.6704 54.432C27.3904 53.9 27.2504 53.3073 27.2504 52.654C27.2504 51.9913 27.3904 51.3987 27.6704 50.876C27.9597 50.344 28.3471 49.924 28.8324 49.616C29.3271 49.2987 29.8777 49.14 30.4844 49.14C30.9977 49.14 31.4504 49.252 31.8424 49.476C32.2437 49.6907 32.5611 49.9893 32.7944 50.372C33.0277 50.7547 33.1444 51.1887 33.1444 51.674V53.606C33.1444 54.0913 33.0277 54.5253 32.7944 54.908C32.5704 55.2907 32.2577 55.594 31.8564 55.818C31.4551 56.0327 30.9977 56.14 30.4844 56.14ZM30.7364 54.684C31.1191 54.684 31.4504 54.6 31.7304 54.432C32.0197 54.2547 32.2437 54.012 32.4024 53.704C32.5611 53.396 32.6404 53.0413 32.6404 52.64C32.6404 52.2387 32.5611 51.884 32.4024 51.576C32.2437 51.268 32.0197 51.03 31.7304 50.862C31.4504 50.6847 31.1191 50.596 30.7364 50.596C30.3631 50.596 30.0317 50.6847 29.7424 50.862C29.4624 51.03 29.2384 51.268 29.0704 51.576C28.9117 51.884 28.8324 52.2387 28.8324 52.64C28.8324 53.0413 28.9117 53.396 29.0704 53.704C29.2384 54.012 29.4624 54.2547 29.7424 54.432C30.0317 54.6 30.3631 54.684 30.7364 54.684ZM34.0824 56H32.5424V54.194L32.8084 52.556L32.5424 50.932V45.92H34.0824V56ZM35.8055 56V49.28H37.3455V56H35.8055ZM36.5755 48.048C36.3142 48.048 36.0948 47.9593 35.9175 47.782C35.7495 47.6047 35.6655 47.3853 35.6655 47.124C35.6655 46.8627 35.7495 46.6433 35.9175 46.466C36.0948 46.2887 36.3142 46.2 36.5755 46.2C36.8462 46.2 37.0655 46.2887 37.2335 46.466C37.4015 46.6433 37.4855 46.8627 37.4855 47.124C37.4855 47.3853 37.4015 47.6047 37.2335 47.782C37.0655 47.9593 36.8462 48.048 36.5755 48.048ZM42.1528 56.14C41.4994 56.14 40.9068 55.986 40.3748 55.678C39.8428 55.3607 39.4181 54.936 39.1008 54.404C38.7928 53.872 38.6388 53.2793 38.6388 52.626C38.6388 51.9727 38.7928 51.3847 39.1008 50.862C39.4181 50.3393 39.8428 49.924 40.3748 49.616C40.9068 49.2987 41.4994 49.14 42.1528 49.14C42.8154 49.14 43.4128 49.294 43.9448 49.602C44.4768 49.91 44.8968 50.33 45.2048 50.862C45.5221 51.3847 45.6808 51.9727 45.6808 52.626C45.6808 53.2793 45.5221 53.872 45.2048 54.404C44.8968 54.936 44.4768 55.3607 43.9448 55.678C43.4128 55.986 42.8154 56.14 42.1528 56.14ZM42.1528 54.656C42.5354 54.656 42.8714 54.572 43.1608 54.404C43.4594 54.2267 43.6881 53.984 43.8468 53.676C44.0148 53.368 44.0988 53.018 44.0988 52.626C44.0988 52.234 44.0148 51.8887 43.8468 51.59C43.6788 51.2913 43.4501 51.058 43.1608 50.89C42.8714 50.7127 42.5354 50.624 42.1528 50.624C41.7794 50.624 41.4434 50.7127 41.1448 50.89C40.8554 51.058 40.6268 51.2913 40.4588 51.59C40.3001 51.8887 40.2208 52.234 40.2208 52.626C40.2208 53.018 40.3001 53.368 40.4588 53.676C40.6268 53.984 40.8554 54.2267 41.1448 54.404C41.4434 54.572 41.7794 54.656 42.1528 54.656Z" fill="white"/>
</svg>
