<svg width="22" height="23" viewBox="0 0 22 23" fill="none" xmlns="http://www.w3.org/2000/svg">
<path d="M10.7436 14.8336L7.66667 11.7567M10.7436 14.8336C12.1763 14.2887 13.5507 13.6015 14.8462 12.7823M10.7436 14.8336V19.9618C10.7436 19.9618 13.8513 19.3977 14.8462 17.9105C15.9538 16.249 14.8462 12.7823 14.8462 12.7823M7.66667 11.7567C8.21246 10.3407 8.8997 8.9834 9.71795 7.70538C10.913 5.7946 12.577 4.22133 14.5518 3.13522C16.5265 2.04911 18.7463 1.48628 21 1.50025C21 4.29 20.2 9.19256 14.8462 12.7823M7.66667 11.7567H2.53846C2.53846 11.7567 3.10256 8.64897 4.58974 7.6541C6.25128 6.54641 9.71795 7.6541 9.71795 7.6541M3.05128 16.3721C1.51282 17.6644 1 21.5003 1 21.5003C1 21.5003 4.8359 20.9874 6.12821 19.449C6.85641 18.5874 6.84615 17.2644 6.0359 16.4644C5.63724 16.0839 5.1121 15.864 4.56126 15.8469C4.01042 15.8299 3.47269 16.0169 3.05128 16.3721Z" stroke="white" stroke-width="2" stroke-linecap="round" stroke-linejoin="round"/>
</svg>
