<svg width="18" height="18" viewBox="0 0 18 18" fill="none" xmlns="http://www.w3.org/2000/svg">
<path d="M9.8 4.99999L8.90757 3.21512C8.65072 2.70143 8.52229 2.44457 8.3307 2.25692C8.16126 2.09097 7.95706 1.96477 7.73286 1.88744C7.47933 1.79999 7.19217 1.79999 6.61783 1.79999H3.56C2.66392 1.79999 2.21587 1.79999 1.87362 1.97438C1.57256 2.12777 1.32779 2.37254 1.17439 2.6736C1 3.01586 1 3.4639 1 4.35999V4.99999M1 4.99999H13.16C14.5041 4.99999 15.1762 4.99999 15.6896 5.26157C16.1412 5.49167 16.5083 5.85882 16.7384 6.31041C17 6.8238 17 7.49586 17 8.83999V12.36C17 13.7041 17 14.3762 16.7384 14.8896C16.5083 15.3412 16.1412 15.7083 15.6896 15.9384C15.1762 16.2 14.5041 16.2 13.16 16.2H4.84C3.49587 16.2 2.82381 16.2 2.31042 15.9384C1.85883 15.7083 1.49168 15.3412 1.26158 14.8896C1 14.3762 1 13.7041 1 12.36V4.99999Z" stroke="#1E1E1E" stroke-width="2" stroke-linecap="round" stroke-linejoin="round"/>
</svg>
