<svg width="25" height="22" viewBox="0 0 25 22" fill="none" xmlns="http://www.w3.org/2000/svg">
<path d="M12.5 1.8335C11.7044 1.8335 10.9413 2.12323 10.3787 2.63895C9.81607 3.15468 9.5 3.85415 9.5 4.5835V11.0002C9.5 11.7295 9.81607 12.429 10.3787 12.9447C10.9413 13.4604 11.7044 13.7502 12.5 13.7502C13.2956 13.7502 14.0587 13.4604 14.6213 12.9447C15.1839 12.429 15.5 11.7295 15.5 11.0002V4.5835C15.5 3.85415 15.1839 3.15468 14.6213 2.63895C14.0587 2.12323 13.2956 1.8335 12.5 1.8335Z" stroke="#012A43" stroke-width="2" stroke-linecap="round" stroke-linejoin="round"/>
<path d="M19.5 9.1665V10.9998C19.5 12.7016 18.7625 14.3337 17.4497 15.5371C16.137 16.7405 14.3565 17.4165 12.5 17.4165C10.6435 17.4165 8.86301 16.7405 7.55025 15.5371C6.2375 14.3337 5.5 12.7016 5.5 10.9998V9.1665" stroke="#012A43" stroke-width="2" stroke-linecap="round" stroke-linejoin="round"/>
<path d="M12.5 17.4165V20.1665" stroke="#012A43" stroke-width="2" stroke-linecap="round" stroke-linejoin="round"/>
</svg>
