<svg width="64" height="78" viewBox="0 0 64 78" fill="none" xmlns="http://www.w3.org/2000/svg">
<path d="M27.5 22H35.5" stroke="#727272" stroke-width="1.5" stroke-linecap="round" stroke-linejoin="round"/>
<path d="M27.5 26H35.5" stroke="#727272" stroke-width="1.5" stroke-linecap="round" stroke-linejoin="round"/>
<path d="M27.5 30H31.5" stroke="#727272" stroke-width="1.5" stroke-linecap="round" stroke-linejoin="round"/>
<path d="M35.0858 37H21.5C21.2348 37 20.9804 36.8946 20.7929 36.7071C20.6054 36.5196 20.5 36.2652 20.5 36V16C20.5 15.7348 20.6054 15.4804 20.7929 15.2929C20.9804 15.1054 21.2348 15 21.5 15H41.5C41.7652 15 42.0196 15.1054 42.2071 15.2929C42.3946 15.4804 42.5 15.7348 42.5 16V29.5858C42.5 29.7171 42.4741 29.8471 42.4239 29.9685C42.3736 30.0898 42.3 30.2 42.2071 30.2929L35.7929 36.7071C35.7 36.8 35.5898 36.8736 35.4685 36.9239C35.3471 36.9741 35.2171 37 35.0858 37V37Z" stroke="#727272" stroke-width="1.5" stroke-linecap="round" stroke-linejoin="round"/>
<path d="M42.4096 29.999H35.5V36.909" stroke="#727272" stroke-width="1.5" stroke-linecap="round" stroke-linejoin="round"/>
<path d="M1.17 64V62.53H3.746C4.418 62.53 5.006 62.3853 5.51 62.096C6.02333 61.8067 6.42 61.4053 6.7 60.892C6.98933 60.3693 7.134 59.7673 7.134 59.086C7.134 58.414 6.98933 57.8213 6.7 57.308C6.41067 56.7947 6.00933 56.3933 5.496 56.104C4.992 55.8147 4.40867 55.67 3.746 55.67H1.17V54.2H3.788C4.49733 54.2 5.15533 54.326 5.762 54.578C6.36867 54.8207 6.896 55.166 7.344 55.614C7.80133 56.0527 8.156 56.5707 8.408 57.168C8.66 57.756 8.786 58.4 8.786 59.1C8.786 59.7907 8.66 60.4347 8.408 61.032C8.156 61.6293 7.806 62.152 7.358 62.6C6.91 63.0387 6.38267 63.384 5.776 63.636C5.16933 63.8787 4.516 64 3.816 64H1.17ZM0.0640001 64V54.2H1.674V64H0.0640001ZM13.2973 64.14C12.6439 64.14 12.0513 63.986 11.5193 63.678C10.9873 63.3607 10.5626 62.936 10.2453 62.404C9.93728 61.872 9.78328 61.2793 9.78328 60.626C9.78328 59.9727 9.93728 59.3847 10.2453 58.862C10.5626 58.3393 10.9873 57.924 11.5193 57.616C12.0513 57.2987 12.6439 57.14 13.2973 57.14C13.9599 57.14 14.5573 57.294 15.0893 57.602C15.6213 57.91 16.0413 58.33 16.3493 58.862C16.6666 59.3847 16.8253 59.9727 16.8253 60.626C16.8253 61.2793 16.6666 61.872 16.3493 62.404C16.0413 62.936 15.6213 63.3607 15.0893 63.678C14.5573 63.986 13.9599 64.14 13.2973 64.14ZM13.2973 62.656C13.6799 62.656 14.0159 62.572 14.3053 62.404C14.6039 62.2267 14.8326 61.984 14.9913 61.676C15.1593 61.368 15.2433 61.018 15.2433 60.626C15.2433 60.234 15.1593 59.8887 14.9913 59.59C14.8233 59.2913 14.5946 59.058 14.3053 58.89C14.0159 58.7127 13.6799 58.624 13.2973 58.624C12.9239 58.624 12.5879 58.7127 12.2893 58.89C11.9999 59.058 11.7713 59.2913 11.6033 59.59C11.4446 59.8887 11.3653 60.234 11.3653 60.626C11.3653 61.018 11.4446 61.368 11.6033 61.676C11.7713 61.984 11.9999 62.2267 12.2893 62.404C12.5879 62.572 12.9239 62.656 13.2973 62.656ZM21.2 64.14C20.5373 64.14 19.9353 63.986 19.394 63.678C18.862 63.37 18.442 62.95 18.134 62.418C17.826 61.886 17.672 61.2933 17.672 60.64C17.672 59.9773 17.826 59.3847 18.134 58.862C18.442 58.33 18.862 57.91 19.394 57.602C19.9353 57.294 20.5373 57.14 21.2 57.14C21.7226 57.14 22.208 57.2427 22.656 57.448C23.1133 57.644 23.5006 57.9287 23.818 58.302L22.81 59.324C22.614 59.0907 22.376 58.918 22.096 58.806C21.8253 58.6847 21.5266 58.624 21.2 58.624C20.8173 58.624 20.4766 58.7127 20.178 58.89C19.8886 59.058 19.66 59.2913 19.492 59.59C19.3333 59.8887 19.254 60.2387 19.254 60.64C19.254 61.032 19.3333 61.382 19.492 61.69C19.66 61.9887 19.8886 62.2267 20.178 62.404C20.4766 62.572 20.8173 62.656 21.2 62.656C21.5266 62.656 21.8253 62.6 22.096 62.488C22.376 62.3667 22.614 62.1893 22.81 61.956L23.818 62.978C23.5006 63.3513 23.1133 63.6407 22.656 63.846C22.208 64.042 21.7226 64.14 21.2 64.14ZM27.6862 64.14C27.1169 64.14 26.6082 64.014 26.1602 63.762C25.7216 63.51 25.3762 63.1647 25.1242 62.726C24.8816 62.278 24.7602 61.7647 24.7602 61.186V57.28H26.3002V61.116C26.3002 61.4427 26.3516 61.7227 26.4542 61.956C26.5662 62.18 26.7249 62.3527 26.9302 62.474C27.1449 62.5953 27.3969 62.656 27.6862 62.656C28.1342 62.656 28.4749 62.5253 28.7082 62.264C28.9509 61.9933 29.0722 61.6107 29.0722 61.116V57.28H30.6122V61.186C30.6122 61.774 30.4862 62.292 30.2342 62.74C29.9916 63.1787 29.6509 63.524 29.2122 63.776C28.7736 64.0187 28.2649 64.14 27.6862 64.14ZM32.1606 64V57.28H33.7006V64H32.1606ZM36.6266 64V59.996C36.6266 59.548 36.4866 59.2027 36.2066 58.96C35.9266 58.708 35.5813 58.582 35.1706 58.582C34.8906 58.582 34.6386 58.638 34.4146 58.75C34.2 58.862 34.0273 59.0253 33.8966 59.24C33.766 59.4453 33.7006 59.6973 33.7006 59.996L33.0986 59.66C33.0986 59.1467 33.2106 58.7033 33.4346 58.33C33.6586 57.9567 33.962 57.6673 34.3446 57.462C34.7273 57.2473 35.1566 57.14 35.6326 57.14C36.1086 57.14 36.538 57.2427 36.9206 57.448C37.3033 57.6533 37.6066 57.9427 37.8306 58.316C38.0546 58.6893 38.1666 59.1373 38.1666 59.66V64H36.6266ZM41.0926 64V59.996C41.0926 59.548 40.9526 59.2027 40.6726 58.96C40.3926 58.708 40.0473 58.582 39.6366 58.582C39.366 58.582 39.1186 58.638 38.8946 58.75C38.6706 58.862 38.4933 59.0253 38.3626 59.24C38.232 59.4453 38.1666 59.6973 38.1666 59.996L37.2986 59.66C37.3453 59.1467 37.4946 58.7033 37.7466 58.33C37.9986 57.9567 38.3206 57.6673 38.7126 57.462C39.114 57.2473 39.5526 57.14 40.0286 57.14C40.514 57.14 40.9526 57.2427 41.3446 57.448C41.7366 57.6533 42.0493 57.9427 42.2826 58.316C42.516 58.6893 42.6326 59.1373 42.6326 59.66V64H41.0926ZM47.3412 64.14C46.6692 64.14 46.0626 63.9907 45.5212 63.692C44.9892 63.384 44.5646 62.964 44.2472 62.432C43.9392 61.9 43.7852 61.3027 43.7852 60.64C43.7852 59.9773 43.9392 59.3847 44.2472 58.862C44.5552 58.33 44.9706 57.91 45.4932 57.602C46.0252 57.294 46.6132 57.14 47.2572 57.14C47.8826 57.14 48.4332 57.2847 48.9092 57.574C49.3946 57.8633 49.7726 58.26 50.0432 58.764C50.3232 59.268 50.4632 59.842 50.4632 60.486C50.4632 60.598 50.4539 60.7147 50.4352 60.836C50.4259 60.948 50.4072 61.074 50.3792 61.214H44.8632V59.954H49.5812L49.0072 60.458C48.9886 60.0473 48.9092 59.702 48.7692 59.422C48.6292 59.142 48.4286 58.9273 48.1672 58.778C47.9152 58.6287 47.6026 58.554 47.2292 58.554C46.8372 58.554 46.4966 58.638 46.2072 58.806C45.9179 58.974 45.6939 59.212 45.5352 59.52C45.3766 59.8187 45.2972 60.178 45.2972 60.598C45.2972 61.018 45.3812 61.3867 45.5492 61.704C45.7172 62.0213 45.9552 62.2687 46.2632 62.446C46.5712 62.614 46.9259 62.698 47.3272 62.698C47.6726 62.698 47.9899 62.6373 48.2792 62.516C48.5779 62.3947 48.8299 62.2173 49.0352 61.984L50.0152 62.978C49.6886 63.3607 49.2919 63.65 48.8252 63.846C48.3586 64.042 47.8639 64.14 47.3412 64.14ZM56.3038 64V60.122C56.3038 59.674 56.1591 59.3053 55.8698 59.016C55.5898 58.7267 55.2258 58.582 54.7778 58.582C54.4791 58.582 54.2131 58.6473 53.9798 58.778C53.7464 58.9087 53.5644 59.0907 53.4338 59.324C53.3031 59.5573 53.2378 59.8233 53.2378 60.122L52.6358 59.786C52.6358 59.2727 52.7478 58.82 52.9718 58.428C53.1958 58.0267 53.5038 57.714 53.8958 57.49C54.2971 57.2567 54.7451 57.14 55.2398 57.14C55.7438 57.14 56.1918 57.2707 56.5838 57.532C56.9758 57.784 57.2838 58.1153 57.5078 58.526C57.7318 58.9273 57.8438 59.3473 57.8438 59.786V64H56.3038ZM51.6978 64V57.28H53.2378V64H51.6978ZM60.3487 64V54.48H61.8887V64H60.3487ZM58.7387 58.68V57.28H63.4987V58.68H58.7387Z" fill="#727272"/>
</svg>
