<svg width="22" height="25" viewBox="0 0 22 25" fill="none" xmlns="http://www.w3.org/2000/svg">
<path fill-rule="evenodd" clip-rule="evenodd" d="M20.6094 6.91226V6.91226C19.8052 5.50961 18.025 5.02966 16.6335 5.83964C15.4233 6.54271 13.9107 5.663 13.9107 4.2557C13.9107 2.6369 12.6069 1.32373 10.9997 1.32373V1.32373C9.39253 1.32373 8.08878 2.6369 8.08878 4.2557C8.08878 5.663 6.5762 6.54271 5.36705 5.83964C3.97446 5.02966 2.1942 5.50961 1.39003 6.91226C0.587013 8.31491 1.06352 10.108 2.45611 10.9168C3.66525 11.6211 3.66525 13.3793 2.45611 14.0836C1.06352 14.8935 0.587013 16.6867 1.39003 18.0881C2.1942 19.4908 3.97446 19.9707 5.3659 19.1619H5.36705C6.5762 18.4577 8.08878 19.3374 8.08878 20.7447V20.7447C8.08878 22.3635 9.39253 23.6767 10.9997 23.6767V23.6767C12.6069 23.6767 13.9107 22.3635 13.9107 20.7447V20.7447C13.9107 19.3374 15.4233 18.4577 16.6335 19.1619C18.025 19.9707 19.8052 19.4908 20.6094 18.0881C21.4136 16.6867 20.9359 14.8935 19.5445 14.0836H19.5433C18.3342 13.3793 18.3342 11.6211 19.5445 10.9168C20.9359 10.108 21.4136 8.31491 20.6094 6.91226Z" stroke="white" stroke-width="2" stroke-linecap="round" stroke-linejoin="round"/>
</svg>
