<svg width="20" height="21" viewBox="0 0 20 21" fill="none" xmlns="http://www.w3.org/2000/svg">
<path fill-rule="evenodd" clip-rule="evenodd" d="M1 0.5C1.55228 0.5 2 0.947715 2 1.5V17.5C2 18.0523 2.44772 18.5 3 18.5H19C19.5523 18.5 20 18.9477 20 19.5C20 20.0523 19.5523 20.5 19 20.5H3C1.34315 20.5 0 19.1569 0 17.5V1.5C0 0.947715 0.447715 0.5 1 0.5ZM11.7573 3.50001L16 3.5C16.2652 3.5 16.5196 3.60536 16.7071 3.7929C16.8946 3.98044 17 4.23479 17 4.50001L17 8.74266C16.9999 9.29494 16.5522 9.74265 15.9999 9.74265C15.4477 9.74264 14.9999 9.29492 15 8.74264L15 6.91424L5.70711 16.2071C5.31658 16.5976 4.68342 16.5976 4.29289 16.2071C3.90237 15.8166 3.90237 15.1834 4.29289 14.7929L13.5858 5.5L11.7573 5.50001C11.205 5.50001 10.7573 5.05229 10.7573 4.50001C10.7573 3.94772 11.205 3.50001 11.7573 3.50001Z" fill="white"/>
</svg>
