<svg width="55" height="78" viewBox="0 0 55 78" fill="none" xmlns="http://www.w3.org/2000/svg">
<path d="M40.4621 27C40.4872 26.67 40.5 26.3365 40.5 26C40.5 18.8203 34.6797 13 27.5 13C20.3203 13 14.5 18.8203 14.5 26C14.5 33.1797 20.3203 39 27.5 39C27.8365 39 28.17 38.9872 28.5 38.9621" stroke="#727272" stroke-width="2" stroke-linecap="round"/>
<path d="M27 13.0483C30.391 16.3218 32.5 20.9147 32.5 26.0002C32.5 26.6762 32.4627 27.3435 32.3901 28.0002" stroke="#727272" stroke-width="2" stroke-linecap="round"/>
<path d="M28.0501 39C24.6297 35.7235 22.5 31.1105 22.5 26C22.5 20.8895 24.6297 16.2765 28.0501 13" stroke="#727272" stroke-width="2" stroke-linecap="round"/>
<line x1="14.5" y1="26" x2="40.5" y2="26" stroke="#727272" stroke-width="2" stroke-linecap="round"/>
<path d="M40.4501 38.9501L38.3301 36.8301" stroke="#727272" stroke-width="2" stroke-linecap="round" stroke-linejoin="round"/>
<path d="M35.5 38C37.7091 38 39.5 36.2091 39.5 34C39.5 31.7909 37.7091 30 35.5 30C33.2909 30 31.5 31.7909 31.5 34C31.5 36.2091 33.2909 38 35.5 38Z" stroke="#727272" stroke-width="2" stroke-linecap="round" stroke-linejoin="round"/>
<path d="M5.584 64L2.364 54.2H3.946L6.368 61.746H5.948L8.314 54.2H9.434L11.8 61.746H11.38L13.802 54.2H15.384L12.164 64H11.044L8.664 56.468H9.084L6.704 64H5.584ZM18.7455 64.14C18.0735 64.14 17.4669 63.9907 16.9255 63.692C16.3935 63.384 15.9689 62.964 15.6515 62.432C15.3435 61.9 15.1895 61.3027 15.1895 60.64C15.1895 59.9773 15.3435 59.3847 15.6515 58.862C15.9595 58.33 16.3749 57.91 16.8975 57.602C17.4295 57.294 18.0175 57.14 18.6615 57.14C19.2869 57.14 19.8375 57.2847 20.3135 57.574C20.7989 57.8633 21.1769 58.26 21.4475 58.764C21.7275 59.268 21.8675 59.842 21.8675 60.486C21.8675 60.598 21.8582 60.7147 21.8395 60.836C21.8302 60.948 21.8115 61.074 21.7835 61.214H16.2675V59.954H20.9855L20.4115 60.458C20.3929 60.0473 20.3135 59.702 20.1735 59.422C20.0335 59.142 19.8329 58.9273 19.5715 58.778C19.3195 58.6287 19.0069 58.554 18.6335 58.554C18.2415 58.554 17.9009 58.638 17.6115 58.806C17.3222 58.974 17.0982 59.212 16.9395 59.52C16.7809 59.8187 16.7015 60.178 16.7015 60.598C16.7015 61.018 16.7855 61.3867 16.9535 61.704C17.1215 62.0213 17.3595 62.2687 17.6675 62.446C17.9755 62.614 18.3302 62.698 18.7315 62.698C19.0769 62.698 19.3942 62.6373 19.6835 62.516C19.9822 62.3947 20.2342 62.2173 20.4395 61.984L21.4195 62.978C21.0929 63.3607 20.6962 63.65 20.2295 63.846C19.7629 64.042 19.2682 64.14 18.7455 64.14ZM26.7 64.14C26.1867 64.14 25.7294 64.0327 25.328 63.818C24.9267 63.594 24.6094 63.2907 24.376 62.908C24.152 62.5253 24.04 62.0913 24.04 61.606V59.674C24.04 59.1887 24.1567 58.7547 24.39 58.372C24.6234 57.9893 24.9407 57.6907 25.342 57.476C25.7434 57.252 26.196 57.14 26.7 57.14C27.3067 57.14 27.8527 57.2987 28.338 57.616C28.8327 57.924 29.22 58.344 29.5 58.876C29.7894 59.3987 29.934 59.9913 29.934 60.654C29.934 61.3073 29.7894 61.9 29.5 62.432C29.22 62.9547 28.8327 63.37 28.338 63.678C27.8527 63.986 27.3067 64.14 26.7 64.14ZM26.448 62.684C26.8214 62.684 27.148 62.6 27.428 62.432C27.7174 62.2547 27.9414 62.012 28.1 61.704C28.268 61.396 28.352 61.0413 28.352 60.64C28.352 60.2387 28.268 59.884 28.1 59.576C27.9414 59.268 27.7174 59.03 27.428 58.862C27.148 58.6847 26.8214 58.596 26.448 58.596C26.0747 58.596 25.7434 58.6847 25.454 58.862C25.1647 59.03 24.9407 59.268 24.782 59.576C24.6234 59.884 24.544 60.2387 24.544 60.64C24.544 61.0413 24.6234 61.396 24.782 61.704C24.9407 62.012 25.1647 62.2547 25.454 62.432C25.7434 62.6 26.0747 62.684 26.448 62.684ZM23.102 64V53.92H24.642V58.932L24.376 60.556L24.642 62.194V64H23.102ZM33.4211 64.14C33.0478 64.14 32.6885 64.0933 32.3431 64C31.9978 63.8973 31.6805 63.7573 31.3911 63.58C31.1018 63.3933 30.8498 63.1693 30.6351 62.908L31.6151 61.928C31.8485 62.1987 32.1145 62.404 32.4131 62.544C32.7211 62.6747 33.0665 62.74 33.4491 62.74C33.7945 62.74 34.0558 62.6887 34.2331 62.586C34.4105 62.4833 34.4991 62.334 34.4991 62.138C34.4991 61.9327 34.4151 61.774 34.2471 61.662C34.0791 61.55 33.8598 61.4567 33.5891 61.382C33.3278 61.298 33.0478 61.214 32.7491 61.13C32.4598 61.046 32.1798 60.934 31.9091 60.794C31.6478 60.6447 31.4331 60.444 31.2651 60.192C31.0971 59.94 31.0131 59.6133 31.0131 59.212C31.0131 58.7827 31.1111 58.414 31.3071 58.106C31.5125 57.798 31.7971 57.56 32.1611 57.392C32.5345 57.224 32.9778 57.14 33.4911 57.14C34.0325 57.14 34.5085 57.238 34.9191 57.434C35.3391 57.6207 35.6891 57.9053 35.9691 58.288L34.9891 59.268C34.7931 59.0253 34.5691 58.8433 34.3171 58.722C34.0651 58.6007 33.7758 58.54 33.4491 58.54C33.1411 58.54 32.9031 58.5867 32.7351 58.68C32.5671 58.7733 32.4831 58.9087 32.4831 59.086C32.4831 59.2727 32.5671 59.4173 32.7351 59.52C32.9031 59.6227 33.1178 59.7113 33.3791 59.786C33.6498 59.8607 33.9298 59.9447 34.2191 60.038C34.5178 60.122 34.7978 60.2433 35.0591 60.402C35.3298 60.5513 35.5491 60.7567 35.7171 61.018C35.8851 61.27 35.9691 61.6013 35.9691 62.012C35.9691 62.6653 35.7405 63.1833 35.2831 63.566C34.8258 63.9487 34.2051 64.14 33.4211 64.14ZM37.2528 64V57.28H38.7928V64H37.2528ZM38.0228 56.048C37.7614 56.048 37.5421 55.9593 37.3648 55.782C37.1968 55.6047 37.1128 55.3853 37.1128 55.124C37.1128 54.8627 37.1968 54.6433 37.3648 54.466C37.5421 54.2887 37.7614 54.2 38.0228 54.2C38.2934 54.2 38.5128 54.2887 38.6808 54.466C38.8488 54.6433 38.9328 54.8627 38.9328 55.124C38.9328 55.3853 38.8488 55.6047 38.6808 55.782C38.5128 55.9593 38.2934 56.048 38.0228 56.048ZM41.542 64V54.48H43.082V64H41.542ZM39.932 58.68V57.28H44.692V58.68H39.932ZM48.7416 64.14C48.0696 64.14 47.463 63.9907 46.9216 63.692C46.3896 63.384 45.965 62.964 45.6476 62.432C45.3396 61.9 45.1856 61.3027 45.1856 60.64C45.1856 59.9773 45.3396 59.3847 45.6476 58.862C45.9556 58.33 46.371 57.91 46.8936 57.602C47.4256 57.294 48.0136 57.14 48.6576 57.14C49.283 57.14 49.8336 57.2847 50.3096 57.574C50.795 57.8633 51.173 58.26 51.4436 58.764C51.7236 59.268 51.8636 59.842 51.8636 60.486C51.8636 60.598 51.8543 60.7147 51.8356 60.836C51.8263 60.948 51.8076 61.074 51.7796 61.214H46.2636V59.954H50.9816L50.4076 60.458C50.389 60.0473 50.3096 59.702 50.1696 59.422C50.0296 59.142 49.829 58.9273 49.5676 58.778C49.3156 58.6287 49.003 58.554 48.6296 58.554C48.2376 58.554 47.897 58.638 47.6076 58.806C47.3183 58.974 47.0943 59.212 46.9356 59.52C46.777 59.8187 46.6976 60.178 46.6976 60.598C46.6976 61.018 46.7816 61.3867 46.9496 61.704C47.1176 62.0213 47.3556 62.2687 47.6636 62.446C47.9716 62.614 48.3263 62.698 48.7276 62.698C49.073 62.698 49.3903 62.6373 49.6796 62.516C49.9783 62.3947 50.2303 62.2173 50.4356 61.984L51.4156 62.978C51.089 63.3607 50.6923 63.65 50.2256 63.846C49.759 64.042 49.2643 64.14 48.7416 64.14Z" fill="#727272"/>
</svg>
