<svg width="57" height="62" viewBox="0 0 57 62" fill="none" xmlns="http://www.w3.org/2000/svg">
<path d="M39.5 14.493C39.5 13.8006 39.5 13.4545 39.3682 13.2942C39.2539 13.1551 39.0824 13.0812 38.9068 13.0956C38.7046 13.1121 38.469 13.3569 37.9977 13.8465L34 18L37.9977 22.1535C38.469 22.6431 38.7046 22.8879 38.9068 22.9044C39.0824 22.9188 39.2539 22.8449 39.3682 22.7058C39.5 22.5455 39.5 22.1994 39.5 21.507V14.493Z" stroke="#727272" stroke-width="2" stroke-linecap="round" stroke-linejoin="round"/>
<path d="M17.5 15.4857C17.5 13.5655 17.5 12.6054 17.8597 11.872C18.1761 11.2269 18.6809 10.7024 19.3018 10.3737C20.0077 10 20.9318 10 22.78 10H28.72C30.5682 10 31.4923 10 32.1982 10.3737C32.8191 10.7024 33.3239 11.2269 33.6403 11.872C34 12.6054 34 13.5655 34 15.4857V20.5143C34 22.4345 34 23.3946 33.6403 24.128C33.3239 24.7731 32.8191 25.2976 32.1982 25.6263C31.4923 26 30.5682 26 28.72 26H22.78C20.9318 26 20.0077 26 19.3018 25.6263C18.6809 25.2976 18.1761 24.7731 17.8597 24.128C17.5 23.3946 17.5 22.4345 17.5 20.5143V15.4857Z" stroke="#727272" stroke-width="2" stroke-linecap="round" stroke-linejoin="round"/>
<path d="M14.298 48L10.336 38.2H12.086L15.18 46.138H14.564L17.686 38.2H19.408L15.418 48H14.298ZM20.616 48V41.28H22.156V48H20.616ZM21.386 40.048C21.1247 40.048 20.9054 39.9593 20.728 39.782C20.56 39.6047 20.476 39.3853 20.476 39.124C20.476 38.8627 20.56 38.6433 20.728 38.466C20.9054 38.2887 21.1247 38.2 21.386 38.2C21.6567 38.2 21.876 38.2887 22.044 38.466C22.212 38.6433 22.296 38.8627 22.296 39.124C22.296 39.3853 22.212 39.6047 22.044 39.782C21.876 39.9593 21.6567 40.048 21.386 40.048ZM26.6973 48.14C26.0906 48.14 25.54 47.986 25.0453 47.678C24.56 47.37 24.1726 46.9547 23.8833 46.432C23.6033 45.9 23.4633 45.3073 23.4633 44.654C23.4633 43.9913 23.6033 43.3987 23.8833 42.876C24.1726 42.344 24.56 41.924 25.0453 41.616C25.54 41.2987 26.0906 41.14 26.6973 41.14C27.2106 41.14 27.6633 41.252 28.0553 41.476C28.4566 41.6907 28.774 41.9893 29.0073 42.372C29.2406 42.7547 29.3573 43.1887 29.3573 43.674V45.606C29.3573 46.0913 29.2406 46.5253 29.0073 46.908C28.7833 47.2907 28.4706 47.594 28.0693 47.818C27.668 48.0327 27.2106 48.14 26.6973 48.14ZM26.9493 46.684C27.332 46.684 27.6633 46.6 27.9433 46.432C28.2326 46.2547 28.4566 46.012 28.6153 45.704C28.774 45.396 28.8533 45.0413 28.8533 44.64C28.8533 44.2387 28.774 43.884 28.6153 43.576C28.4566 43.268 28.2326 43.03 27.9433 42.862C27.6633 42.6847 27.332 42.596 26.9493 42.596C26.576 42.596 26.2446 42.6847 25.9553 42.862C25.6753 43.03 25.4513 43.268 25.2833 43.576C25.1246 43.884 25.0453 44.2387 25.0453 44.64C25.0453 45.0413 25.1246 45.396 25.2833 45.704C25.4513 46.012 25.6753 46.2547 25.9553 46.432C26.2446 46.6 26.576 46.684 26.9493 46.684ZM30.2953 48H28.7553V46.194L29.0213 44.556L28.7553 42.932V37.92H30.2953V48ZM35.1264 48.14C34.4544 48.14 33.8477 47.9907 33.3064 47.692C32.7744 47.384 32.3497 46.964 32.0324 46.432C31.7244 45.9 31.5704 45.3027 31.5704 44.64C31.5704 43.9773 31.7244 43.3847 32.0324 42.862C32.3404 42.33 32.7557 41.91 33.2784 41.602C33.8104 41.294 34.3984 41.14 35.0424 41.14C35.6677 41.14 36.2184 41.2847 36.6944 41.574C37.1797 41.8633 37.5577 42.26 37.8284 42.764C38.1084 43.268 38.2484 43.842 38.2484 44.486C38.2484 44.598 38.2391 44.7147 38.2204 44.836C38.2111 44.948 38.1924 45.074 38.1644 45.214H32.6484V43.954H37.3664L36.7924 44.458C36.7737 44.0473 36.6944 43.702 36.5544 43.422C36.4144 43.142 36.2137 42.9273 35.9524 42.778C35.7004 42.6287 35.3877 42.554 35.0144 42.554C34.6224 42.554 34.2817 42.638 33.9924 42.806C33.7031 42.974 33.4791 43.212 33.3204 43.52C33.1617 43.8187 33.0824 44.178 33.0824 44.598C33.0824 45.018 33.1664 45.3867 33.3344 45.704C33.5024 46.0213 33.7404 46.2687 34.0484 46.446C34.3564 46.614 34.7111 46.698 35.1124 46.698C35.4577 46.698 35.7751 46.6373 36.0644 46.516C36.3631 46.3947 36.6151 46.2173 36.8204 45.984L37.8004 46.978C37.4737 47.3607 37.0771 47.65 36.6104 47.846C36.1437 48.042 35.6491 48.14 35.1264 48.14ZM42.5629 48.14C41.9096 48.14 41.3169 47.986 40.7849 47.678C40.2529 47.3607 39.8282 46.936 39.5109 46.404C39.2029 45.872 39.0489 45.2793 39.0489 44.626C39.0489 43.9727 39.2029 43.3847 39.5109 42.862C39.8282 42.3393 40.2529 41.924 40.7849 41.616C41.3169 41.2987 41.9096 41.14 42.5629 41.14C43.2256 41.14 43.8229 41.294 44.3549 41.602C44.8869 41.91 45.3069 42.33 45.6149 42.862C45.9322 43.3847 46.0909 43.9727 46.0909 44.626C46.0909 45.2793 45.9322 45.872 45.6149 46.404C45.3069 46.936 44.8869 47.3607 44.3549 47.678C43.8229 47.986 43.2256 48.14 42.5629 48.14ZM42.5629 46.656C42.9456 46.656 43.2816 46.572 43.5709 46.404C43.8696 46.2267 44.0982 45.984 44.2569 45.676C44.4249 45.368 44.5089 45.018 44.5089 44.626C44.5089 44.234 44.4249 43.8887 44.2569 43.59C44.0889 43.2913 43.8602 43.058 43.5709 42.89C43.2816 42.7127 42.9456 42.624 42.5629 42.624C42.1896 42.624 41.8536 42.7127 41.5549 42.89C41.2656 43.058 41.0369 43.2913 40.8689 43.59C40.7102 43.8887 40.6309 44.234 40.6309 44.626C40.6309 45.018 40.7102 45.368 40.8689 45.676C41.0369 45.984 41.2656 46.2267 41.5549 46.404C41.8536 46.572 42.1896 46.656 42.5629 46.656Z" fill="#727272"/>
</svg>
